<mxfile host="app.diagrams.net" agent="Mozilla/5.0 (Windows NT 10.0; Win64; x64) AppleWebKit/537.36 (KHTML, like Gecko) Chrome/127.0.0.0 Safari/537.36" version="26.1.3">
  <diagram name="Page-1" id="79axT5Cl7ESex3P9BJ7E">
    <mxGraphModel dx="1024" dy="533" grid="1" gridSize="10" guides="1" tooltips="1" connect="1" arrows="1" fold="1" page="1" pageScale="1" pageWidth="827" pageHeight="1169" math="0" shadow="0">
      <root>
        <mxCell id="0" />
        <mxCell id="1" parent="0" />
        <mxCell id="O3bGstry5U0FJ0GyHeAG-5" value="GESTION DES EVALUATIONS" style="swimlane;whiteSpace=wrap;html=1;" vertex="1" parent="1">
          <mxGeometry x="220" y="200" width="459" height="390" as="geometry" />
        </mxCell>
        <mxCell id="O3bGstry5U0FJ0GyHeAG-6" value="Gerer utilisateurs" style="ellipse;whiteSpace=wrap;html=1;" vertex="1" parent="O3bGstry5U0FJ0GyHeAG-5">
          <mxGeometry x="51" y="60" width="220" height="40" as="geometry" />
        </mxCell>
        <mxCell id="O3bGstry5U0FJ0GyHeAG-7" value="Configurer cours" style="ellipse;whiteSpace=wrap;html=1;" vertex="1" parent="O3bGstry5U0FJ0GyHeAG-5">
          <mxGeometry x="51" y="130" width="220" height="40" as="geometry" />
        </mxCell>
        <mxCell id="O3bGstry5U0FJ0GyHeAG-8" value="Planifier Evaluation" style="ellipse;whiteSpace=wrap;html=1;" vertex="1" parent="O3bGstry5U0FJ0GyHeAG-5">
          <mxGeometry x="49" y="200" width="220" height="40" as="geometry" />
        </mxCell>
        <mxCell id="O3bGstry5U0FJ0GyHeAG-9" value="Saisir notes" style="ellipse;whiteSpace=wrap;html=1;" vertex="1" parent="O3bGstry5U0FJ0GyHeAG-5">
          <mxGeometry x="51" y="265" width="220" height="40" as="geometry" />
        </mxCell>
        <mxCell id="O3bGstry5U0FJ0GyHeAG-15" value="Authentifier" style="ellipse;whiteSpace=wrap;html=1;" vertex="1" parent="O3bGstry5U0FJ0GyHeAG-5">
          <mxGeometry x="350" y="170" width="105" height="40" as="geometry" />
        </mxCell>
        <mxCell id="O3bGstry5U0FJ0GyHeAG-37" style="edgeStyle=orthogonalEdgeStyle;rounded=0;orthogonalLoop=1;jettySize=auto;html=1;exitX=0.5;exitY=0;exitDx=0;exitDy=0;endArrow=open;endFill=0;dashed=1;" edge="1" parent="O3bGstry5U0FJ0GyHeAG-5" source="O3bGstry5U0FJ0GyHeAG-23" target="O3bGstry5U0FJ0GyHeAG-9">
          <mxGeometry relative="1" as="geometry" />
        </mxCell>
        <mxCell id="O3bGstry5U0FJ0GyHeAG-23" value="Générer rapport" style="ellipse;whiteSpace=wrap;html=1;" vertex="1" parent="O3bGstry5U0FJ0GyHeAG-5">
          <mxGeometry x="52" y="345" width="219" height="40" as="geometry" />
        </mxCell>
        <mxCell id="O3bGstry5U0FJ0GyHeAG-24" value="" style="endArrow=none;dashed=1;html=1;rounded=0;entryX=1;entryY=0.5;entryDx=0;entryDy=0;exitX=0.238;exitY=0;exitDx=0;exitDy=0;exitPerimeter=0;edgeStyle=orthogonalEdgeStyle;curved=1;endFill=0;startArrow=open;startFill=0;" edge="1" parent="O3bGstry5U0FJ0GyHeAG-5" source="O3bGstry5U0FJ0GyHeAG-15" target="O3bGstry5U0FJ0GyHeAG-6">
          <mxGeometry width="50" height="50" relative="1" as="geometry">
            <mxPoint x="180" y="180" as="sourcePoint" />
            <mxPoint x="230" y="130" as="targetPoint" />
          </mxGeometry>
        </mxCell>
        <mxCell id="O3bGstry5U0FJ0GyHeAG-32" value="&amp;lt;&amp;lt;include&amp;gt;&amp;gt;" style="edgeLabel;html=1;align=center;verticalAlign=middle;resizable=0;points=[];" vertex="1" connectable="0" parent="O3bGstry5U0FJ0GyHeAG-24">
          <mxGeometry x="0.244" y="15" relative="1" as="geometry">
            <mxPoint as="offset" />
          </mxGeometry>
        </mxCell>
        <mxCell id="O3bGstry5U0FJ0GyHeAG-26" value="" style="endArrow=none;dashed=1;html=1;rounded=0;exitX=0;exitY=0;exitDx=0;exitDy=0;startArrow=open;startFill=0;" edge="1" parent="O3bGstry5U0FJ0GyHeAG-5" source="O3bGstry5U0FJ0GyHeAG-15">
          <mxGeometry width="50" height="50" relative="1" as="geometry">
            <mxPoint x="180" y="180" as="sourcePoint" />
            <mxPoint x="270" y="150" as="targetPoint" />
          </mxGeometry>
        </mxCell>
        <mxCell id="O3bGstry5U0FJ0GyHeAG-33" value="&amp;lt;&amp;lt;include&amp;gt;&amp;gt;" style="edgeLabel;html=1;align=center;verticalAlign=middle;resizable=0;points=[];" vertex="1" connectable="0" parent="O3bGstry5U0FJ0GyHeAG-26">
          <mxGeometry x="-0.0373" y="-2" relative="1" as="geometry">
            <mxPoint as="offset" />
          </mxGeometry>
        </mxCell>
        <mxCell id="O3bGstry5U0FJ0GyHeAG-27" value="" style="endArrow=open;dashed=1;html=1;rounded=0;exitX=1;exitY=0.5;exitDx=0;exitDy=0;entryX=0;entryY=0.5;entryDx=0;entryDy=0;startArrow=none;startFill=0;endFill=0;" edge="1" parent="O3bGstry5U0FJ0GyHeAG-5" source="O3bGstry5U0FJ0GyHeAG-8" target="O3bGstry5U0FJ0GyHeAG-15">
          <mxGeometry width="50" height="50" relative="1" as="geometry">
            <mxPoint x="180" y="180" as="sourcePoint" />
            <mxPoint x="320" y="190" as="targetPoint" />
          </mxGeometry>
        </mxCell>
        <mxCell id="O3bGstry5U0FJ0GyHeAG-34" value="&amp;lt;&amp;lt;include&amp;gt;&amp;gt;" style="edgeLabel;html=1;align=center;verticalAlign=middle;resizable=0;points=[];" vertex="1" connectable="0" parent="O3bGstry5U0FJ0GyHeAG-27">
          <mxGeometry x="0.159" y="2" relative="1" as="geometry">
            <mxPoint as="offset" />
          </mxGeometry>
        </mxCell>
        <mxCell id="O3bGstry5U0FJ0GyHeAG-31" value="" style="endArrow=open;dashed=1;html=1;rounded=0;entryX=0.222;entryY=1.035;entryDx=0;entryDy=0;exitX=1;exitY=0.5;exitDx=0;exitDy=0;edgeStyle=orthogonalEdgeStyle;curved=1;entryPerimeter=0;endFill=0;" edge="1" parent="O3bGstry5U0FJ0GyHeAG-5" source="O3bGstry5U0FJ0GyHeAG-9" target="O3bGstry5U0FJ0GyHeAG-15">
          <mxGeometry width="50" height="50" relative="1" as="geometry">
            <mxPoint x="417" y="290" as="sourcePoint" />
            <mxPoint x="338" y="200" as="targetPoint" />
          </mxGeometry>
        </mxCell>
        <mxCell id="O3bGstry5U0FJ0GyHeAG-35" value="&amp;lt;&amp;lt;include&amp;gt;&amp;gt;" style="edgeLabel;html=1;align=center;verticalAlign=middle;resizable=0;points=[];" vertex="1" connectable="0" parent="O3bGstry5U0FJ0GyHeAG-31">
          <mxGeometry x="0.4186" y="22" relative="1" as="geometry">
            <mxPoint as="offset" />
          </mxGeometry>
        </mxCell>
        <mxCell id="O3bGstry5U0FJ0GyHeAG-38" value="" style="ellipse;whiteSpace=wrap;html=1;aspect=fixed;" vertex="1" parent="O3bGstry5U0FJ0GyHeAG-5">
          <mxGeometry x="156.5" y="320" width="10" height="10" as="geometry" />
        </mxCell>
        <mxCell id="O3bGstry5U0FJ0GyHeAG-42" value="" style="endArrow=none;html=1;rounded=0;entryX=0;entryY=0.5;entryDx=0;entryDy=0;" edge="1" parent="O3bGstry5U0FJ0GyHeAG-5" target="O3bGstry5U0FJ0GyHeAG-38">
          <mxGeometry width="50" height="50" relative="1" as="geometry">
            <mxPoint x="90" y="325" as="sourcePoint" />
            <mxPoint x="70" y="305" as="targetPoint" />
          </mxGeometry>
        </mxCell>
        <mxCell id="O3bGstry5U0FJ0GyHeAG-43" value="&lt;font style=&quot;font-size: 6px;&quot;&gt;Saisie de note complètement effectuée&lt;/font&gt;" style="rounded=0;whiteSpace=wrap;html=1;" vertex="1" parent="O3bGstry5U0FJ0GyHeAG-5">
          <mxGeometry x="20" y="305" width="70" height="40" as="geometry" />
        </mxCell>
        <mxCell id="O3bGstry5U0FJ0GyHeAG-16" value="" style="endArrow=none;html=1;rounded=0;entryX=1;entryY=0.5;entryDx=0;entryDy=0;" edge="1" parent="1" target="O3bGstry5U0FJ0GyHeAG-17">
          <mxGeometry width="50" height="50" relative="1" as="geometry">
            <mxPoint x="270" y="280" as="sourcePoint" />
            <mxPoint x="180" y="298" as="targetPoint" />
          </mxGeometry>
        </mxCell>
        <mxCell id="O3bGstry5U0FJ0GyHeAG-17" value="ADMINISTRATEUR" style="rounded=0;whiteSpace=wrap;html=1;" vertex="1" parent="1">
          <mxGeometry x="40" y="290" width="120" height="60" as="geometry" />
        </mxCell>
        <mxCell id="O3bGstry5U0FJ0GyHeAG-18" value="" style="endArrow=none;html=1;rounded=0;entryX=0;entryY=0.5;entryDx=0;entryDy=0;" edge="1" parent="1" target="O3bGstry5U0FJ0GyHeAG-7">
          <mxGeometry width="50" height="50" relative="1" as="geometry">
            <mxPoint x="160" y="320" as="sourcePoint" />
            <mxPoint x="450" y="330" as="targetPoint" />
          </mxGeometry>
        </mxCell>
        <mxCell id="O3bGstry5U0FJ0GyHeAG-19" value="" style="endArrow=none;html=1;rounded=0;entryX=0;entryY=0.5;entryDx=0;entryDy=0;exitX=1;exitY=0.5;exitDx=0;exitDy=0;" edge="1" parent="1" source="O3bGstry5U0FJ0GyHeAG-17" target="O3bGstry5U0FJ0GyHeAG-8">
          <mxGeometry width="50" height="50" relative="1" as="geometry">
            <mxPoint x="170" y="330" as="sourcePoint" />
            <mxPoint x="281" y="360" as="targetPoint" />
          </mxGeometry>
        </mxCell>
        <mxCell id="O3bGstry5U0FJ0GyHeAG-22" value="ENSEIGNANT" style="rounded=0;whiteSpace=wrap;html=1;" vertex="1" parent="1">
          <mxGeometry x="707" y="500" width="120" height="60" as="geometry" />
        </mxCell>
        <mxCell id="O3bGstry5U0FJ0GyHeAG-21" value="" style="endArrow=none;html=1;rounded=0;exitX=1;exitY=0.5;exitDx=0;exitDy=0;entryX=0;entryY=0.5;entryDx=0;entryDy=0;" edge="1" parent="1" source="O3bGstry5U0FJ0GyHeAG-9" target="O3bGstry5U0FJ0GyHeAG-22">
          <mxGeometry width="50" height="50" relative="1" as="geometry">
            <mxPoint x="400" y="380" as="sourcePoint" />
            <mxPoint x="710" y="430" as="targetPoint" />
          </mxGeometry>
        </mxCell>
      </root>
    </mxGraphModel>
  </diagram>
</mxfile>
